<svg width="100" height="100" viewBox="0 0 100 100" fill="none" xmlns="http://www.w3.org/2000/svg">
<g clip-path="url(#clip0_4400_206)">
<path fill-rule="evenodd" clip-rule="evenodd" d="M66.5177 20.5109V85.351C66.5177 86.9681 65.2663 88.2805 63.7245 88.2805H35.7931C34.2513 88.2805 33 86.9681 33 85.351V70.561L37.9413 65.6198C38.6767 64.8841 39.09 63.8863 39.09 62.8461C39.09 61.8059 38.6769 60.8083 37.9415 60.0727L33 55.1312V41.73H35.08C37.245 41.73 39 39.975 39 37.81C39 35.6451 37.245 33.89 35.08 33.89H33V20.5109C33 18.8938 34.2513 17.5814 35.7931 17.5814H63.7245C65.2663 17.5814 66.5177 18.8938 66.5177 20.5109ZM33 57.9596V67.7326L36.5271 64.2055C36.8875 63.845 37.09 63.356 37.09 62.8461C37.09 62.3362 36.8875 61.8473 36.5271 61.4867L33 57.9596Z" fill="#3A82F6"/>
<path fill-rule="evenodd" clip-rule="evenodd" d="M2 37.8078C2 37.298 2.2025 36.809 2.56298 36.4484L13.4694 25.542L13.4717 25.5398C13.8343 25.1895 14.32 24.9957 14.8242 25.0001C15.3284 25.0045 15.8106 25.2067 16.1671 25.5632C16.5236 25.9197 16.7259 26.402 16.7302 26.9061C16.7346 27.4103 16.5408 27.896 16.1906 28.2586L16.1884 28.2609L8.56428 35.885H35.0772C35.5871 35.885 36.0762 36.0876 36.4368 36.4482C36.7974 36.8088 37 37.2979 37 37.8078C37 38.3178 36.7974 38.8069 36.4368 39.1675C36.0762 39.5281 35.5871 39.7307 35.0772 39.7307H8.56428L16.1839 47.3503C16.3665 47.5272 16.5121 47.7386 16.6125 47.9722C16.7133 48.2068 16.7663 48.4591 16.7685 48.7144C16.7707 48.9697 16.7221 49.2229 16.6254 49.4592C16.5287 49.6955 16.386 49.9102 16.2054 50.0907C16.0249 50.2713 15.8102 50.4141 15.5739 50.5107C15.3376 50.6074 15.0844 50.6561 14.8291 50.6539C14.5738 50.6516 14.3214 50.5986 14.0868 50.4978C13.8533 50.3975 13.642 50.2519 13.4651 50.0694L2.56298 39.1673C2.2025 38.8067 2 38.3177 2 37.8078Z" fill="#1E2127"/>
<path d="M98.6721 17.8874L64.9683 0.310297C63.1081 -0.660351 60.9313 0.765349 60.9313 2.93319V97.0685C60.9313 99.0645 62.7971 100.476 64.6033 99.8496L98.3072 88.1315C99.4505 87.7331 100.221 86.614 100.221 85.3504V20.5103C100.221 19.3991 99.6218 18.3815 98.6721 17.8874Z" fill="#E83090"/>
<path d="M77.6911 44.1421V55.8602C77.6911 57.4773 76.4398 58.7897 74.898 58.7897C73.3562 58.7897 72.1049 57.4773 72.1049 55.8602V44.1421C72.1049 42.525 73.3562 41.2126 74.898 41.2126C76.4398 41.2126 77.6911 42.525 77.6911 44.1421Z" fill="white"/>
<path fill-rule="evenodd" clip-rule="evenodd" d="M37 62.8422C37 63.3521 36.7975 63.8411 36.437 64.2016L25.5306 75.1081L25.5283 75.1103C25.1657 75.4605 24.68 75.6543 24.1758 75.65C23.6716 75.6456 23.1894 75.4433 22.8329 75.0868C22.4764 74.7303 22.2741 74.2481 22.2698 73.7439C22.2654 73.2397 22.4592 72.754 22.8094 72.3914L22.8116 72.3891L30.4357 64.765L3.92283 64.765C3.41287 64.765 2.92378 64.5624 2.56318 64.2018C2.20258 63.8412 2 63.3522 2 62.8422C2 62.3322 2.20258 61.8432 2.56318 61.4826C2.92378 61.122 3.41287 60.9194 3.92283 60.9194L30.4357 60.9194L22.8161 53.2997C22.6335 53.1228 22.4879 52.9114 22.3875 52.6778C22.2867 52.4433 22.2337 52.1909 22.2315 51.9356C22.2293 51.6803 22.2779 51.4271 22.3746 51.1908C22.4713 50.9545 22.614 50.7398 22.7946 50.5593C22.9751 50.3787 23.1898 50.236 23.4261 50.1393C23.6624 50.0426 23.9156 49.9939 24.1709 49.9962C24.4263 49.9984 24.6786 50.0514 24.9132 50.1522C25.1467 50.2525 25.358 50.3981 25.5349 50.5806L36.437 61.4828C36.7975 61.8433 37 62.3323 37 62.8422Z" fill="#1E2127"/>
</g>
<defs>
<clipPath id="clip0_4400_206">
<rect width="100" height="100" fill="white"/>
</clipPath>
</defs>
</svg>
