<svg width="100" height="100" viewBox="0 0 100 100" fill="none" xmlns="http://www.w3.org/2000/svg">
<g clip-path="url(#clip0_4400_217)">
<path d="M76.1724 94.9498H7.81255C3.49787 94.9498 0 91.2811 0 86.7558V42.1561C0 37.6308 3.49787 33.9621 7.81255 33.9621H76.1724C80.487 33.9621 83.9849 37.6308 83.9849 42.1561V86.7558C83.9849 91.2811 80.487 94.9498 76.1724 94.9498Z" fill="#E83090"/>
<path d="M86.0826 68.6741L93.5428 67.2944C97.7921 66.5086 100.629 62.2586 99.88 57.8021L92.3096 12.7724C91.5604 8.3159 87.5084 5.34004 83.2592 6.12585L14.4837 18.845C10.2347 19.6308 7.39738 23.8806 8.1466 28.3374L8.73957 31.8644H76.1724C81.7387 31.8644 86.0826 36.5676 86.0826 42.1561V68.6741Z" fill="#3A82F6"/>
<path d="M0 47.9022H83.9849V61.8423H0V47.9022Z" fill="#F28CC2"/>
<path d="M23.2591 81.4225H9.96804C8.35006 81.4225 7.03833 82.7983 7.03833 84.4953C7.03833 86.1923 8.35006 87.5681 9.96804 87.5681H23.2591C24.8771 87.5681 26.1888 86.1923 26.1888 84.4953C26.1888 82.7983 24.8771 81.4225 23.2591 81.4225Z" fill="white"/>
</g>
<defs>
<clipPath id="clip0_4400_217">
<rect width="100" height="100" fill="white"/>
</clipPath>
</defs>
</svg>
