<svg width="100" height="100" viewBox="0 0 100 100" fill="none" xmlns="http://www.w3.org/2000/svg">
<g clip-path="url(#clip0_4400_247)">
<path d="M0 5.3884C0 2.96476 1.87329 1 4.1841 1H95.8159C98.1267 1 100 2.96475 100 5.3884V94.9118C100 97.3354 98.1267 99.3002 95.8159 99.3002H4.1841C1.87329 99.3002 0 97.3354 0 94.9118V5.3884Z" fill="#E83090"/>
<path d="M80.4842 69.1082H19.5159C17.4966 69.1082 15.8578 67.5354 15.8578 65.5975C15.8578 63.6595 17.4966 62.0867 19.5159 62.0867H80.4842C82.5035 62.0867 84.1423 63.6595 84.1423 65.5975C84.1423 67.5354 82.5035 69.1082 80.4842 69.1082Z" fill="#F28CC2"/>
<path d="M80.4842 83.1511H19.5159C17.4966 83.1511 15.8578 81.5783 15.8578 79.6404C15.8578 77.7024 17.4966 76.1296 19.5159 76.1296H80.4842C82.5035 76.1296 84.1423 77.7024 84.1423 79.6404C84.1423 81.5783 82.5035 83.1511 80.4842 83.1511Z" fill="#F28CC2"/>
<path d="M43.7518 31.2655C41.9041 31.2655 40.4045 29.6927 40.4045 27.7548V26.5846H22.5523V27.7548C22.5523 29.6927 21.0528 31.2655 19.2051 31.2655C17.3574 31.2655 15.8578 29.6927 15.8578 27.7548V23.0738C15.8578 21.1359 17.3574 19.5631 19.2051 19.5631H43.7518C45.5995 19.5631 47.0991 21.1359 47.0991 23.0738V27.7548C47.0991 29.6927 45.5995 31.2655 43.7518 31.2655Z" fill="white"/>
<path d="M31.478 51.6145C29.6303 51.6145 28.1307 50.1119 28.1307 48.2582V23.6363C28.1307 21.7827 29.6303 20.2801 31.478 20.2801C33.3257 20.2801 34.8253 21.7827 34.8253 23.6363V48.2582C34.8253 50.1119 33.3257 51.6145 31.478 51.6145Z" fill="white"/>
<path d="M34.8254 52.33H28.1308C26.2832 52.33 24.7836 50.7572 24.7836 48.8193C24.7836 46.8814 26.2832 45.3086 28.1308 45.3086H34.8254C36.6731 45.3086 38.1727 46.8814 38.1727 48.8193C38.1727 50.7572 36.6731 52.33 34.8254 52.33Z" fill="white"/>
<path d="M81.0182 26.2774H65.3976C63.5499 26.2774 62.0503 24.7046 62.0503 22.7666C62.0503 20.8287 63.5499 19.2559 65.3976 19.2559H81.0182C82.8659 19.2559 84.3655 20.8287 84.3655 22.7666C84.3655 24.7046 82.8659 26.2774 81.0182 26.2774Z" fill="#F28CC2"/>
<path d="M80.7565 52.116H65.1359C63.2882 52.116 61.7886 50.5432 61.7886 48.6053C61.7886 46.6674 63.2882 45.0946 65.1359 45.0946H80.7565C82.6042 45.0946 84.1038 46.6674 84.1038 48.6053C84.1038 50.5432 82.6042 52.116 80.7565 52.116Z" fill="#F28CC2"/>
<path d="M80.7565 39.4775H65.1359C63.2882 39.4775 61.7886 37.9047 61.7886 35.9668C61.7886 34.0289 63.2882 32.4561 65.1359 32.4561H80.7565C82.6042 32.4561 84.1038 34.0289 84.1038 35.9668C84.1038 37.9047 82.6042 39.4775 80.7565 39.4775Z" fill="#F28CC2"/>
</g>
<defs>
<clipPath id="clip0_4400_247">
<rect width="100" height="100" fill="white"/>
</clipPath>
</defs>
</svg>
